<!DOCTYPE svg PUBLIC "-//W3C//DTD SVG 1.1//EN" "http://www.w3.org/Graphics/SVG/1.1/DTD/svg11.dtd">

<!-- Uploaded to: SVG Repo, www.svgrepo.com, Transformed by: SVG Repo Mixer Tools -->
<svg fill="#ffffff" height="42px" width="42px" version="1.1" id="Layer_1" xmlns="http://www.w3.org/2000/svg" xmlns:xlink="http://www.w3.org/1999/xlink" viewBox="0 0 512 512" xml:space="preserve">

<g id="SVGRepo_bgCarrier" stroke-width="0"/>

<g id="SVGRepo_tracerCarrier" stroke-linecap="round" stroke-linejoin="round"/>

<g id="SVGRepo_iconCarrier"> <g> <g> <g> <path d="M196.716,204.8c-19.317,0-35.032,15.715-35.032,35.032s15.715,35.032,35.032,35.032h53.895 c19.317,0,35.032-15.715,35.032-35.032S269.927,204.8,250.611,204.8H196.716z M269.474,239.832 c0,10.401-8.463,18.863-18.863,18.863h-53.895c-10.401,0-18.863-8.463-18.863-18.863c0-10.401,8.463-18.863,18.863-18.863h53.895 C261.011,220.968,269.474,229.431,269.474,239.832z"/> <path d="M112.031,150.582c3.436-2.85,3.913-7.946,1.063-11.384c-2.851-3.436-7.945-3.914-11.384-1.063 c-30.387,25.194-47.815,62.26-47.815,101.696c0,37.047,15.71,72.62,43.102,97.597c1.551,1.414,3.5,2.111,5.446,2.111 c2.193,0,4.382-0.888,5.976-2.637c3.008-3.301,2.773-8.413-0.526-11.421c-24.041-21.92-37.829-53.138-37.829-85.649 C70.063,205.225,85.36,172.695,112.031,150.582z"/> <path d="M512,320.674v-75.453c0-4.466-3.618-8.084-8.084-8.084h-56.608c-0.53-35.294-11.482-69.101-31.754-97.934 c-20.318-28.899-48.45-50.762-81.355-63.225c-4.173-1.578-8.841,0.521-10.423,4.696c-1.581,4.175,0.521,8.842,4.696,10.423 c60.58,22.944,101.554,81.403,102.663,146.04h-2.672c-51.523,0-93.53,41.532-94.305,92.875 c-20.526,16.579-46.314,25.694-72.769,25.694h-75.453c-19.365,0-38.526-4.869-55.409-14.081 c-3.92-2.138-8.831-0.695-10.969,3.225c-2.139,3.919-0.695,8.83,3.225,10.969c19.251,10.504,41.089,16.055,63.153,16.055h75.453 c25.922,0,51.284-7.682,72.758-21.85v48.797H256c-4.466,0-8.084,3.618-8.084,8.084c0,4.466,3.619,8.084,8.084,8.084h96.987 c0.015,0,0.03,0,0.043,0h142.087c-3.83,21.418-22.594,37.726-45.096,37.726H61.979c-22.502,0-41.266-16.309-45.096-37.726h206.78 c4.466,0,8.084-3.618,8.084-8.084c0-4.466-3.618-8.084-8.084-8.084h-48.505c-87.667,0-158.989-71.322-158.989-158.989 c0-71.046,46.044-132.285,113.179-152.304v72.07c0,7.502,2.414,14.498,6.508,20.233c-17.721,14.771-28.066,36.603-28.066,60.001 c0,43.091,35.056,78.147,78.147,78.147h75.453c43.091,0,78.147-35.056,78.147-78.147c0-14.801-4.157-29.21-12.025-41.669 c-2.384-3.776-7.376-4.901-11.152-2.52c-3.776,2.384-4.903,7.377-2.52,11.152c6.233,9.872,9.529,21.296,9.529,33.037 c0,34.176-27.803,61.979-61.979,61.979h-75.453c-34.176,0-61.979-27.803-61.979-61.979c0-19.422,8.99-37.484,24.27-49.193 c4.653,2.447,9.914,3.877,15.477,3.984c9.332,0.185,18.153-3.382,24.917-10.019c6.858-6.728,10.79-16.065,10.79-25.614v-25.186 c2.518,0.594,5.117,0.909,7.76,0.932c0.106,0.001,0.208,0.001,0.313,0.001c9.089,0,17.72-3.6,24.337-10.157 c0.207-0.205,0.411-0.413,0.612-0.622h28.957c58.019,0,107.413,43.313,114.896,100.748c0.577,4.429,4.646,7.539,9.061,6.973 c4.428-0.577,7.55-4.634,6.973-9.061c-8.528-65.463-64.816-114.828-130.93-114.828H241.42c0.727-2.848,1.106-5.784,1.106-8.739 V80.842h29.642c8.606,0,17.237,0.693,25.653,2.058c4.42,0.707,8.558-2.28,9.274-6.685c0.715-4.406-2.278-8.56-6.685-9.274 c-9.269-1.505-18.772-2.267-28.242-2.267h-30.763c-3.528-12.428-14.979-21.558-28.522-21.558c-4.466,0-8.084,3.619-8.084,8.084 s3.618,8.084,8.084,8.084c7.43,0,13.474,6.044,13.474,13.474V99.05c0,5.198-2.157,10.318-5.919,14.045 c-3.606,3.571-8.293,5.524-13.121,5.471c-4.053-0.037-7.904-1.34-11.136-3.768c-2.449-1.838-5.728-2.138-8.468-0.768 c-2.74,1.369-4.471,4.168-4.471,7.232v37.726c0,5.237-2.167,10.367-5.946,14.074c-3.64,3.572-8.385,5.489-13.285,5.393 c-10.199-0.193-18.496-8.653-18.496-18.859V72.758c0-7.43,6.044-13.474,13.474-13.474h21.558c4.466,0,8.084-3.619,8.084-8.084 s-3.618-8.084-8.084-8.084h-21.558c-15.656,0-28.517,12.201-29.572,27.595c-35.489,9.598-67.52,30.495-90.744,59.328 C13.735,161.004,0,199.996,0,239.832c0,70.355,41.697,131.157,101.676,158.989H8.084c-4.466,0-8.084,3.618-8.084,8.084 c0,34.176,27.803,61.979,61.979,61.979h388.042c34.176,0,61.979-27.803,61.979-61.979c0-4.466-3.618-8.084-8.084-8.084h-33.478 C495.496,381.85,512,353.152,512,320.674z M417.684,398.821h-46.07l95.095-101.886c3.047-3.265,2.87-8.38-0.393-11.427 c-3.265-3.045-8.38-2.869-11.427,0.394L350.316,397.945v-66.492c0-43.091,35.056-78.147,78.147-78.147h67.368v67.368 C495.832,363.765,460.775,398.821,417.684,398.821z"/> <path d="M299.113,188.871c2.665,0,5.273-1.316,6.816-3.726c2.407-3.76,1.311-8.76-2.449-11.167 c-12.56-8.043-27.114-12.293-42.09-12.293h-37.726c-4.466,0-8.084,3.619-8.084,8.084s3.618,8.084,8.084,8.084h37.726 c11.879,0,23.419,3.368,33.372,9.741C296.111,188.458,297.62,188.871,299.113,188.871z"/> </g> </g> </g> </g>

</svg>
