<!DOCTYPE svg PUBLIC "-//W3C//DTD SVG 1.1//EN" "http://www.w3.org/Graphics/SVG/1.1/DTD/svg11.dtd">

<!-- Uploaded to: SVG Repo, www.svgrepo.com, Transformed by: SVG Repo Mixer Tools -->
<svg fill="#ffffff" height="40px" width="40px" version="1.1" id="Layer_1" xmlns="http://www.w3.org/2000/svg" xmlns:xlink="http://www.w3.org/1999/xlink" viewBox="0 0 512 512" xml:space="preserve">

<g id="SVGRepo_bgCarrier" stroke-width="0"/>

<g id="SVGRepo_tracerCarrier" stroke-linecap="round" stroke-linejoin="round"/>

<g id="SVGRepo_iconCarrier"> <g> <g> <path d="M291.593,102.619l-5.009-17.605c-1.42-4.989-6.608-7.878-11.601-6.462c-4.986,1.42-7.88,6.612-6.461,11.6l5.009,17.604 c1.174,4.129,4.935,6.823,9.026,6.823c0.851,0,1.715-0.116,2.575-0.361C290.118,112.799,293.012,107.606,291.593,102.619z"/> </g> </g> <g> <g> <path d="M451.219,48.892H339.561C331.974,20.515,305.934,0,275.887,0H117.102c-5.185,0-9.389,4.204-9.389,9.389 c0,5.185,4.204,9.389,9.389,9.389h158.785c19.74,0,37.067,12.374,43.958,30.114h-59.243c-32.31,0-58.596,26.286-58.596,58.597 v79.198c0,13.699,9.519,25.209,22.289,28.281v261.623c0,6.009,1.508,11.67,4.161,16.632H65.777 c-11.064,0-20.066-9.001-20.066-20.066v-91.975c0-5.185-4.204-9.389-9.389-9.389s-9.389,4.204-9.389,9.389v91.973 c0,21.418,17.425,38.843,38.843,38.843h386.34c19.525,0,35.409-15.884,35.409-35.409V238.474c0-5.185-4.202-9.389-9.389-9.389 s-9.389,4.204-9.389,9.389v238.116c0,9.171-7.461,16.632-16.632,16.632H259.704c-9.171,0-16.632-7.461-16.632-16.632V215.779 h27.237v23.685c0,5.185,4.202,9.389,9.389,9.389s9.389-4.204,9.389-9.389v-23.685h32.031v23.685c0,5.185,4.202,9.389,9.389,9.389 c5.186,0,9.389-4.204,9.389-9.389v-23.685h32.031v23.685c0,5.185,4.202,9.389,9.389,9.389s9.389-4.204,9.389-9.389v-23.685h32.031 v23.685c0,5.185,4.202,9.389,9.389,9.389s9.389-4.204,9.389-9.389v-23.685h39.21c16.041,0,29.093-13.05,29.093-29.093v-79.199 C509.815,75.178,483.529,48.892,451.219,48.892z M491.037,186.686c0,5.687-4.627,10.315-10.315,10.315H231.099 c-5.687,0-10.315-4.628-10.315-10.315v-79.199c0-21.957,17.862-39.82,39.818-39.82h71.256c0.009,0,0.018,0.001,0.026,0.001 c0.006,0,0.013-0.001,0.018-0.001h119.316c21.956,0,39.82,17.862,39.82,39.82V186.686z"/> </g> </g> <g> <g> <path d="M436.972,80.666c-4.314-2.877-10.144-1.711-13.019,2.604l-8.629,12.941c-2.877,4.314-1.71,10.144,2.604,13.019 c1.6,1.068,3.41,1.579,5.199,1.579c3.034,0,6.011-1.468,7.82-4.182l8.629-12.941C442.453,89.371,441.286,83.541,436.972,80.666z"/> </g> </g> <g> <g> <path d="M321.933,126.681c-4.316-2.877-10.144-1.71-13.019,2.604l-8.628,12.941c-2.877,4.315-1.71,10.144,2.604,13.019 c1.601,1.068,3.41,1.579,5.199,1.579c3.034,0,6.011-1.468,7.82-4.182l8.628-12.941 C327.414,135.385,326.247,129.556,321.933,126.681z"/> </g> </g> <g> <g> <path d="M408.524,151.042l-0.926-15.526c-0.308-5.176-4.753-9.105-9.932-8.813c-5.176,0.309-9.121,4.756-8.812,9.932l0.928,15.526 c0.297,4.986,4.434,8.829,9.362,8.829c0.188,0,0.378-0.005,0.568-0.016C404.889,160.665,408.833,156.219,408.524,151.042z"/> </g> </g> <g> <g> <path d="M365.959,97.656l-12.944-12.941c-3.664-3.667-9.609-3.667-13.277,0c-3.667,3.667-3.667,9.612,0.001,13.277l12.943,12.941 c1.833,1.834,4.236,2.75,6.638,2.75s4.806-0.916,6.64-2.75C369.627,107.266,369.627,101.321,365.959,97.656z"/> </g> </g> <g> <g> <path d="M180.099,164.403H34.208c-7.303,0-13.246-5.942-13.246-13.246V65.915c0.001-25.992,21.147-47.138,47.139-47.138H88.31 c5.185,0,9.389-4.204,9.389-9.389C97.699,4.204,93.495,0,88.31,0H68.102C31.756,0,2.186,29.57,2.186,65.915v85.242 c0,15.155,10.585,27.875,24.747,31.179v166.299c0,5.185,4.204,9.389,9.389,9.389s9.389-4.204,9.389-9.389V183.181h134.388 c5.185,0,9.389-4.204,9.389-9.389C189.488,168.607,185.285,164.403,180.099,164.403z"/> </g> </g> <g> <g> <path d="M133.71,86.175c-4.314-2.875-10.144-1.711-13.02,2.604l-9.576,14.366c-2.877,4.315-1.711,10.144,2.604,13.02 c1.6,1.067,3.41,1.577,5.199,1.577c3.033,0,6.011-1.468,7.82-4.181l9.578-14.366C139.191,94.88,138.025,89.052,133.71,86.175z"/> </g> </g> <g> <g> <path d="M182.422,53.829l-14.366-14.366c-3.667-3.667-9.612-3.667-13.277,0c-3.667,3.667-3.667,9.612,0,13.277l14.366,14.366 c1.833,1.833,4.235,2.75,6.638,2.75c2.402,0,4.806-0.916,6.638-2.75C186.088,63.439,186.088,57.494,182.422,53.829z"/> </g> </g> <g> <g> <path d="M99.609,58.89l-5.558-19.541c-1.42-4.987-6.611-7.879-11.599-6.462c-4.987,1.418-7.88,6.612-6.462,11.599l5.558,19.541 c1.174,4.129,4.936,6.823,9.026,6.823c0.85,0,1.715-0.116,2.574-0.361C98.134,69.071,101.027,63.877,99.609,58.89z"/> </g> </g> <g> <g> <circle cx="173.317" cy="228.46" r="9.389"/> </g> </g> <g> <g> <circle cx="96.955" cy="282.289" r="9.389"/> </g> </g> <g> <g> <circle cx="145.777" cy="319.844" r="9.389"/> </g> </g> <g> <g> <circle cx="91.948" cy="416.235" r="9.389"/> </g> </g> <g> <g> <circle cx="179.576" cy="412.479" r="9.389"/> </g> </g> </g>

</svg>
