<!DOCTYPE svg PUBLIC "-//W3C//DTD SVG 1.1//EN" "http://www.w3.org/Graphics/SVG/1.1/DTD/svg11.dtd">

<!-- Uploaded to: SVG Repo, www.svgrepo.com, Transformed by: SVG Repo Mixer Tools -->
<svg width="40px" height="40px" viewBox="0 0 24 24" data-name="016_FOOD" id="_016_FOOD" xmlns="http://www.w3.org/2000/svg" fill="#ffffff">

<g id="SVGRepo_bgCarrier" stroke-width="0"/>

<g id="SVGRepo_tracerCarrier" stroke-linecap="round" stroke-linejoin="round"/>

<g id="SVGRepo_iconCarrier">

<defs>

<style>.cls-1{fill:#ffffff;}</style>

</defs>

<path class="cls-1" d="M11.63,22a10.32,10.32,0,0,1-7.34-3,1,1,0,0,1,0-1.41L17.55,4.29a1,1,0,0,1,1.41,0,10.37,10.37,0,0,1,2.57,10.42,1,1,0,1,1-1.91-.59A8.45,8.45,0,0,0,20,11.63a8.28,8.28,0,0,0-1.79-5.17L6.46,18.21a8.37,8.37,0,0,0,11.09-.66c.11-.11.22-.23.32-.35a1,1,0,1,1,1.49,1.34L19,19A10.3,10.3,0,0,1,11.63,22Z"/>

<path class="cls-1" d="M14.89,15.74a1,1,0,0,1-.71-.29l-.56-.56a1,1,0,0,1,0-1.42,1,1,0,0,1,1.41,0l.56.57a1,1,0,0,1,0,1.41A1,1,0,0,1,14.89,15.74Z"/>

<path class="cls-1" d="M17.47,13.16a1,1,0,0,1-.7-.3l-.57-.57a1,1,0,0,1,1.41-1.41l.57.57a1,1,0,0,1,0,1.41A1,1,0,0,1,17.47,13.16Z"/>

<path class="cls-1" d="M12.19,18.44a1,1,0,0,1-.71-.29l-.57-.57a1,1,0,0,1,1.42-1.41l.57.56a1,1,0,0,1,0,1.42A1,1,0,0,1,12.19,18.44Z"/>

<path class="cls-1" d="M3.88,15.66A1,1,0,0,1,3,15.1a9.57,9.57,0,0,1-1-4.21c0-2.69,1.93-5.6,5.06-5.6A6.32,6.32,0,0,1,10,6.07a4.85,4.85,0,0,1,2.94-1,6.24,6.24,0,0,1,3.45,1.09,1,1,0,0,1-1.14,1.65,4.17,4.17,0,0,0-2.31-.74A2.89,2.89,0,0,0,10.79,8a1,1,0,0,1-1.23.14,4.88,4.88,0,0,0-2.5-.84c-2,0-3.06,2.09-3.06,3.6a7.59,7.59,0,0,0,.77,3.32,1,1,0,0,1-.45,1.34A1.06,1.06,0,0,1,3.88,15.66Z"/>

<path class="cls-1" d="M9.91,8.14a.91.91,0,0,1-.39-.08A1,1,0,0,1,9,6.76a2.25,2.25,0,0,0,.11-.37,3.92,3.92,0,0,0,.07-.68,2.17,2.17,0,0,0-.9-1.87,1,1,0,0,1-.34-1.37,1,1,0,0,1,1.35-.36,4.17,4.17,0,0,1,1.89,3.6,6.12,6.12,0,0,1-.11,1.1,7,7,0,0,1-.22.71A1,1,0,0,1,9.91,8.14Z"/>

</g>

</svg>
